<?xml version="1.0" encoding="UTF-8" standalone="no"?>
<svg
   xmlns:dc="http://purl.org/dc/elements/1.1/"
   xmlns:cc="http://creativecommons.org/ns#"
   xmlns:rdf="http://www.w3.org/1999/02/22-rdf-syntax-ns#"
   xmlns:svg="http://www.w3.org/2000/svg"
   xmlns="http://www.w3.org/2000/svg"
   xmlns:sodipodi="http://sodipodi.sourceforge.net/DTD/sodipodi-0.dtd"
   xmlns:inkscape="http://www.inkscape.org/namespaces/inkscape"
   inkscape:version="1.0 (4035a4fb49, 2020-05-01)"
   sodipodi:docname="comment.svg"
   version="1.1"
   width="512"
   viewBox="0 0 511.072 449.99988"
   height="450.81699"
   enable-background="new 0 0 511.072 511.072"
   id="Capa_1">
  <metadata
     id="metadata12">
    <rdf:RDF>
      <cc:Work
         rdf:about="">
        <dc:format>image/svg+xml</dc:format>
        <dc:type
           rdf:resource="http://purl.org/dc/dcmitype/StillImage" />
        <dc:title></dc:title>
      </cc:Work>
    </rdf:RDF>
  </metadata>
  <defs
     id="defs10" />
  <sodipodi:namedview
     inkscape:current-layer="Capa_1"
     inkscape:window-maximized="1"
     inkscape:window-y="27"
     inkscape:window-x="0"
     inkscape:cy="217.77826"
     inkscape:cx="256"
     inkscape:zoom="1.1152344"
     showgrid="false"
     id="namedview8"
     inkscape:window-height="712"
     inkscape:window-width="1366"
     inkscape:pageshadow="2"
     inkscape:pageopacity="0"
     guidetolerance="10"
     gridtolerance="10"
     objecttolerance="10"
     borderopacity="1"
     bordercolor="#666666"
     pagecolor="#ffffff" />
  <g
     style="fill:#5c4c4c;fill-opacity:1"
     transform="translate(0,-30.536)"
     id="Speech_Bubble_48_">
    <g
       style="fill:#5c4c4c;fill-opacity:1"
       id="g4">
      <path
         style="fill:#5c4c4c;fill-opacity:1"
         id="path2"
         d="M 74.39,480.536 H 38.177 L 63.784,454.929 C 77.591,441.122 86.213,423.164 88.531,403.683 52.502,380.039 26.156,348.932 12.053,313.258 -2.04,277.611 -3.811,238.37 6.932,199.776 19.822,153.467 50.055,111.258 92.06,80.923 137.706,47.96 194.53,30.536 256.39,30.536 c 77.927,0 143.611,22.389 189.948,64.745 41.744,38.159 64.734,89.63 64.734,144.933 0,26.868 -5.471,53.011 -16.26,77.703 -11.165,25.551 -27.514,48.302 -48.593,67.619 -46.399,42.523 -112.042,65 -189.83,65 -28.877,0 -59.01,-3.855 -85.913,-10.929 -25.465,26.123 -59.972,40.929 -96.086,40.929 z m 182,-420 c -124.039,0 -200.15,73.973 -220.557,147.285 -19.284,69.28 9.143,134.743 76.043,175.115 l 7.475,4.511 -0.23,8.727 c -0.456,17.274 -4.574,33.912 -11.945,48.952 17.949,-6.073 34.236,-17.083 46.99,-32.151 l 6.342,-7.493 9.405,2.813 c 26.393,7.894 57.104,12.241 86.477,12.241 154.372,0 224.682,-93.473 224.682,-180.322 0,-46.776 -19.524,-90.384 -54.976,-122.79 C 385.383,80.208 326.699,60.536 256.39,60.536 Z" />
    </g>
  </g>
</svg>
