<?xml version="1.0" encoding="UTF-8" standalone="no"?>
<svg
   xmlns:dc="http://purl.org/dc/elements/1.1/"
   xmlns:cc="http://creativecommons.org/ns#"
   xmlns:rdf="http://www.w3.org/1999/02/22-rdf-syntax-ns#"
   xmlns:svg="http://www.w3.org/2000/svg"
   xmlns="http://www.w3.org/2000/svg"
   xmlns:sodipodi="http://sodipodi.sourceforge.net/DTD/sodipodi-0.dtd"
   xmlns:inkscape="http://www.inkscape.org/namespaces/inkscape"
   inkscape:version="1.0.2 (e86c870879, 2021-01-15, custom)"
   sodipodi:docname="logo.svg"
   version="1.1"
   width="45"
   viewBox="0 0 45 44.773392"
   height="44.773392"
   enable-background="new 0 0 300 300"
   id="memory">
  <metadata
     id="metadata76">
    <rdf:RDF>
      <cc:Work
         rdf:about="">
        <dc:format>image/svg+xml</dc:format>
        <dc:type
           rdf:resource="http://purl.org/dc/dcmitype/StillImage" />
        <dc:title></dc:title>
      </cc:Work>
    </rdf:RDF>
  </metadata>
  <defs
     id="defs74" />
  <sodipodi:namedview
     inkscape:snap-global="true"
     inkscape:current-layer="g69"
     inkscape:window-maximized="1"
     inkscape:window-y="27"
     inkscape:window-x="0"
     inkscape:cy="19.411497"
     inkscape:cx="44.288341"
     inkscape:zoom="7.5738424"
     inkscape:pagecheckerboard="false"
     showgrid="false"
     id="namedview72"
     inkscape:window-height="712"
     inkscape:window-width="1366"
     inkscape:pageshadow="2"
     inkscape:pageopacity="0"
     guidetolerance="10"
     gridtolerance="10"
     objecttolerance="10"
     borderopacity="1"
     bordercolor="#666666"
     pagecolor="#ffffff"
     inkscape:document-rotation="0"
     fit-margin-top="0"
     fit-margin-left="0"
     fit-margin-right="0"
     fit-margin-bottom="0" />
  <g
     style="fill:#005ea6;fill-opacity:1"
     transform="matrix(0.22843567,0,0,0.22843567,-11.765351,-15.076754)"
     id="g69">
    <path
       style="fill:#005ea6;fill-opacity:1"
       id="path53"
       d="m 248.496,164 c 0,-11.898 -6.793,-22.578 -16.874,-27.579 4.412,-5.157 6.712,-11.329 6.712,-18.151 0,-16.487 -13.414,-29.9 -29.901,-29.9 -3.031,0 -6.001,0.469 -8.879,1.399 C 198.012,76.408 186.631,66 172.865,66 163.213,66 154.737,71.118 150,78.781 145.263,71.118 136.787,66 127.135,66 c -13.767,0 -25.147,10.408 -26.688,23.769 -2.879,-0.931 -5.849,-1.399 -8.88,-1.399 -16.487,0 -29.901,13.413 -29.901,29.9 0,6.822 2.3,12.994 6.712,18.151 -10.081,5.001 -16.874,15.681 -16.874,27.579 0,11.569 6.818,21.996 16.931,26.903 -4.357,5.282 -6.769,11.868 -6.769,18.826 0,16.487 13.414,29.9 29.901,29.9 3.031,0 6.001,-0.469 8.88,-1.399 1.54,13.36 12.921,23.77 26.688,23.77 9.652,0 18.127,-5.118 22.864,-12.781 4.737,7.663 13.213,12.781 22.865,12.781 13.767,0 25.147,-10.409 26.688,-23.77 2.878,0.931 5.848,1.399 8.879,1.399 16.487,0 29.901,-13.413 29.901,-29.9 0,-6.958 -2.411,-13.544 -6.769,-18.826 10.114,-4.907 16.933,-15.334 16.933,-26.903 z m -121.361,90 c -10.402,0 -18.865,-8.463 -18.865,-18.865 0,-0.634 0.099,-1.323 0.213,-2.121 l 0.065,-0.464 c 0.211,-1.518 -0.465,-3.023 -1.738,-3.875 -1.275,-0.853 -2.924,-0.899 -4.246,-0.126 -3.488,2.045 -7.188,3.081 -10.996,3.081 -12.076,0 -21.901,-9.824 -21.901,-21.9 0,-6.77 3.144,-13.07 8.625,-17.289 1.232,-0.948 1.804,-2.525 1.464,-4.044 -0.34,-1.518 -1.528,-2.701 -3.048,-3.033 C 66.74,183.181 59.504,174.196 59.504,164 c 0,-10.324 7.226,-19.706 16.86,-22 h 10.333 c 4.799,0 8.703,4.606 8.703,10.27 0,5.664 -3.904,10.271 -8.703,10.271 h -2.54 c -2.209,0 -4,1.791 -4,4 0,2.209 1.791,4 4,4 h 2.54 c 9.21,0 16.703,-8.196 16.703,-18.271 C 103.4,142.195 95.907,134 86.697,134 h -9.433 c -5.042,-4.268 -7.598,-9.553 -7.598,-15.73 0,-12.076 9.825,-21.9 21.901,-21.9 3.808,0 7.508,1.036 10.996,3.081 1.321,0.772 2.97,0.727 4.246,-0.126 1.273,-0.852 1.949,-2.357 1.738,-3.875 l -0.065,-0.466 c -0.114,-0.797 -0.213,-1.485 -0.213,-2.119 0,-10.401 8.463,-18.864 18.865,-18.864 C 137.537,74 146,82.463 146,92.864 V 154 h -0.694 c -11.028,0 -20,8.972 -20,20 0,2.209 1.791,4 4,4 2.209,0 4,-1.791 4,-4 0,-6.617 5.383,-12 12,-12 H 146 v 73.135 C 146,245.537 137.537,254 127.135,254 Z m 96.157,-68.637 c -1.52,0.332 -2.708,1.516 -3.048,3.033 -0.34,1.519 0.231,3.096 1.464,4.044 5.481,4.219 8.625,10.52 8.625,17.289 0,12.076 -9.825,21.9 -21.901,21.9 -3.808,0 -7.508,-1.036 -10.996,-3.081 -1.323,-0.774 -2.971,-0.728 -4.246,0.126 -1.273,0.852 -1.949,2.357 -1.738,3.875 l 0.065,0.464 c 0.114,0.798 0.213,1.487 0.213,2.121 0,10.402 -8.463,18.865 -18.865,18.865 -10.402,0 -18.865,-8.462 -18.865,-18.864 V 186 h 4.105 c 6.617,0 12,5.383 12,12 0,2.209 1.791,4 4,4 2.209,0 4,-1.791 4,-4 0,-11.028 -8.972,-20 -20,-20 H 154 V 92.864 C 154,82.463 162.462,74 172.865,74 c 10.403,0 18.865,8.463 18.865,18.864 0,0.634 -0.099,1.322 -0.213,2.119 l -0.065,0.466 c -0.211,1.518 0.465,3.023 1.738,3.875 1.277,0.854 2.924,0.9 4.246,0.126 3.488,-2.045 7.188,-3.081 10.996,-3.081 12.076,0 21.901,9.824 21.901,21.9 0,6.177 -2.555,11.463 -7.598,15.73 h -9.223 c -9.21,0 -16.702,8.195 -16.702,18.27 0,10.075 7.492,18.271 16.702,18.271 h 2.541 c 2.209,0 4,-1.791 4,-4 0,-2.209 -1.791,-4 -4,-4 h -2.541 c -4.799,0 -8.702,-4.607 -8.702,-10.271 0,-5.664 3.903,-10.27 8.702,-10.27 h 10.123 c 9.634,2.294 16.86,11.676 16.86,22 0.001,10.197 -7.235,19.182 -17.203,21.364 z" />
    <path
       style="fill:#005ea6;fill-opacity:1"
       id="path55"
       d="m 185.568,129.892 c 10.61,0 19.243,-8.633 19.243,-19.243 0,-2.209 -1.791,-4 -4,-4 -2.209,0 -4,1.791 -4,4 0,6.199 -5.044,11.243 -11.243,11.243 h -5.081 c -10.61,0 -19.243,8.633 -19.243,19.243 0,2.209 1.791,4 4,4 2.209,0 4,-1.791 4,-4 0,-6.199 5.044,-11.243 11.243,-11.243 z" />
    <path
       style="fill:#005ea6;fill-opacity:1"
       id="path57"
       d="m 188.896,169.402 c -1.225,-1.838 -3.709,-2.338 -5.547,-1.109 -1.838,1.225 -2.335,3.709 -1.109,5.547 l 6.591,9.888 c 1.896,2.846 2.899,6.156 2.899,9.574 0,4.61 -1.796,8.944 -5.056,12.205 l -9.016,9.016 c -1.562,1.562 -1.562,4.095 0,5.656 0.78,0.781 1.805,1.172 2.828,1.172 1.023,0 2.048,-0.391 2.828,-1.172 l 9.016,-9.016 c 4.771,-4.771 7.399,-11.114 7.399,-17.861 0,-5.003 -1.467,-9.848 -4.243,-14.012 z" />
    <path
       style="fill:#005ea6;fill-opacity:1"
       id="path59"
       d="m 119.724,129.892 c 6.199,0 11.243,5.044 11.243,11.243 0,2.209 1.791,4 4,4 2.209,0 4,-1.791 4,-4 0,-10.61 -8.633,-19.243 -19.243,-19.243 h -5.081 c -6.199,0 -11.243,-5.044 -11.243,-11.243 0,-2.209 -1.791,-4 -4,-4 -2.209,0 -4,1.791 -4,4 0,10.61 8.633,19.243 19.243,19.243 z" />
    <path
       style="fill:#005ea6;fill-opacity:1"
       id="path61"
       d="m 138.478,205.655 -12.581,2.081 c -4.55,0.755 -9.118,-0.312 -12.866,-2.995 -2.78,-1.991 -4.888,-4.733 -6.097,-7.932 l -4.201,-11.115 c -0.78,-2.067 -3.086,-3.112 -5.155,-2.327 -2.066,0.78 -3.108,3.089 -2.327,5.155 l 4.2,11.114 c 1.769,4.682 4.854,8.695 8.922,11.608 4.337,3.105 9.424,4.729 14.652,4.729 1.387,0 2.783,-0.114 4.178,-0.345 l 12.581,-2.081 c 2.179,-0.36 3.653,-2.42 3.293,-4.599 -0.362,-2.178 -2.424,-3.662 -4.599,-3.293 z" />
  </g>
</svg>
